<?xml version="1.0" standalone="no"?>
<!DOCTYPE svg PUBLIC "-//W3C//DTD SVG 20010904//EN"
 "http://www.w3.org/TR/2001/REC-SVG-20010904/DTD/svg10.dtd">
<svg version="1.0" xmlns="http://www.w3.org/2000/svg"
 width="1280.000000pt" height="1280.000000pt" viewBox="0 0 1280.000000 1280.000000"
 preserveAspectRatio="xMidYMid meet">
<metadata>
Created by potrace 1.16, written by Peter Selinger 2001-2019
</metadata>
<g transform="translate(0.000000,1280.000000) scale(0.100000,-0.100000)"
fill="#000000" stroke="none">
<path d="M6398 12593 c-9 -10 -39 -61 -68 -113 -29 -52 -84 -150 -122 -218
-70 -123 -76 -143 -54 -194 6 -13 2 -18 -16 -22 -179 -36 -294 -65 -393 -97
-131 -43 -330 -135 -441 -205 -40 -24 -77 -44 -82 -44 -6 0 -30 13 -54 29 -56
38 -146 80 -289 136 -184 72 -231 59 -190 -53 28 -81 71 -227 71 -246 0 -20
-7 -24 -206 -99 -866 -329 -1514 -735 -2113 -1322 -344 -337 -600 -651 -842
-1035 -332 -524 -577 -1125 -693 -1700 -24 -118 -64 -411 -78 -570 -28 -309
-15 -859 28 -1210 32 -264 127 -750 169 -870 18 -52 19 -80 3 -81 -7 0 -84 0
-170 1 -152 1 -198 -6 -198 -31 0 -14 316 -487 346 -519 21 -22 31 -24 95 -22
39 1 79 -3 90 -9 11 -5 63 -97 118 -207 287 -573 599 -1013 1026 -1451 640
-655 1382 -1117 2246 -1399 482 -158 971 -244 1604 -281 96 -6 155 -14 188
-27 46 -18 48 -18 95 0 48 19 100 24 457 46 1307 80 2521 619 3469 1540 478
465 845 968 1185 1625 40 77 78 143 84 147 7 4 40 8 74 8 34 0 73 5 86 11 14
6 67 73 121 153 53 77 133 192 176 255 44 63 80 122 80 132 0 16 -15 18 -184
21 -101 2 -187 6 -190 9 -4 3 9 71 28 150 305 1282 255 2383 -156 3409 -72
181 -263 561 -370 737 -342 563 -776 1064 -1298 1500 -463 388 -1002 691
-1765 993 -106 43 -171 74 -173 83 -2 9 17 79 42 157 25 78 46 152 46 165 0
29 -28 40 -77 30 -52 -9 -296 -110 -394 -163 l-87 -46 -63 41 c-146 93 -286
156 -477 217 -106 33 -340 86 -382 86 -27 0 -33 16 -19 54 12 33 10 40 -31
118 -23 46 -74 144 -112 218 -65 124 -101 180 -118 180 -4 0 -14 -8 -22 -17z
m60 -384 c25 -62 25 -70 24 -308 -1 -134 3 -251 8 -261 7 -13 29 -18 104 -24
237 -16 555 -139 732 -282 51 -41 88 -63 105 -64 21 0 62 33 184 148 163 153
286 252 311 252 20 0 12 -25 -35 -113 -48 -90 -104 -156 -228 -267 -98 -87
-123 -115 -123 -140 0 -6 29 -42 65 -80 75 -80 124 -154 175 -264 67 -144 109
-284 110 -363 0 -23 4 -53 10 -67 9 -26 10 -26 127 -26 65 0 147 -5 183 -11
62 -10 180 -63 180 -81 0 -4 -125 -7 -282 -6 l-282 3 -22 130 c-57 330 -152
521 -359 727 -177 177 -401 301 -647 362 -698 171 -1417 -157 -1668 -762 -37
-87 -87 -277 -96 -361 -12 -107 8 -101 -315 -101 -220 0 -280 3 -277 13 3 6
42 28 89 46 80 33 91 35 244 40 l159 6 22 115 c13 63 32 142 43 175 52 157
147 321 250 437 28 31 51 63 51 72 0 8 -30 44 -66 78 -212 200 -239 231 -287
325 -52 102 -55 113 -28 113 32 0 141 -88 315 -252 91 -87 169 -158 174 -158
5 0 52 32 103 70 204 153 491 261 762 285 68 6 78 10 82 29 3 11 6 136 8 276
2 243 4 257 26 308 13 29 29 51 34 49 6 -2 22 -32 35 -68z m-250 -392 c4 -68
-14 -93 -75 -101 -26 -4 -94 -19 -151 -32 -117 -29 -124 -27 -143 37 -23 75 7
93 212 129 149 27 153 26 157 -33z m667 13 c126 -33 135 -38 135 -73 0 -49
-21 -97 -43 -97 -11 0 -76 13 -146 29 -69 17 -139 31 -156 33 -28 3 -30 7 -35
48 -3 25 -3 56 -1 69 4 23 5 24 85 18 45 -3 117 -15 161 -27z m-1125 -150 l0
-70 -72 -36 c-40 -20 -115 -61 -165 -91 l-93 -55 -55 42 c-30 23 -55 48 -55
55 0 32 354 225 413 225 27 0 27 0 27 -70z m1461 40 c129 -54 309 -163 309
-189 0 -22 -61 -81 -83 -81 -11 0 -59 22 -106 50 -48 27 -117 63 -154 81 -76
35 -88 51 -83 106 3 21 5 44 5 51 1 19 33 14 112 -18z m-603 -335 c468 -70
861 -386 1017 -815 150 -417 42 -864 -290 -1195 -112 -113 -226 -193 -366
-259 -93 -44 -297 -116 -328 -116 -9 0 -56 43 -104 95 -49 52 -95 95 -104 95
-8 0 -56 -43 -105 -95 -103 -109 -107 -110 -224 -74 -238 73 -406 167 -562
314 -232 218 -367 498 -379 785 -17 373 100 668 363 920 185 178 425 299 679
344 106 19 282 19 403 1z m-1814 -48 c29 -37 32 -55 14 -62 -365 -122 -894
-366 -1197 -550 -542 -329 -1005 -728 -1405 -1209 -241 -289 -466 -631 -628
-951 -437 -865 -591 -1918 -437 -2992 14 -104 17 -148 10 -162 -16 -29 -71
-65 -82 -54 -18 18 -63 266 -95 523 -22 186 -22 761 0 1015 25 272 95 644 170
895 8 25 22 74 32 110 9 36 25 81 34 100 10 19 36 91 59 159 52 151 110 284
202 460 492 936 1290 1759 2193 2263 193 108 434 229 571 288 146 63 497 198
517 199 9 1 28 -14 42 -32z m3419 -22 c508 -181 1121 -501 1489 -778 31 -23
78 -58 104 -77 172 -126 582 -493 700 -627 38 -43 91 -103 119 -134 352 -393
667 -874 866 -1324 190 -430 328 -943 379 -1410 17 -158 25 -867 11 -1025 -18
-203 -29 -281 -61 -438 -17 -78 -30 -144 -30 -147 0 -13 -25 -2 -60 28 -43 35
-48 57 -30 132 45 189 85 703 77 995 -28 1012 -360 1975 -959 2774 -228 304
-561 662 -810 872 -51 43 -98 83 -104 89 -6 5 -26 21 -44 35 -19 14 -48 36
-64 50 -100 83 -425 307 -531 365 -11 6 -56 33 -100 60 -169 103 -584 296
-915 425 -257 100 -260 102 -218 147 30 32 66 29 181 -12z m-3112 -132 l39
-38 -66 -95 c-36 -52 -81 -126 -100 -163 -38 -74 -34 -73 -111 -41 -20 8 -33
20 -33 31 0 10 28 71 61 136 57 112 130 207 158 207 6 0 30 -17 52 -37z m2745
4 c83 -124 184 -302 184 -322 0 -15 -68 -55 -94 -55 -9 0 -27 23 -41 51 -39
76 -103 179 -141 226 -19 23 -34 45 -34 49 0 15 74 84 90 84 8 0 25 -15 36
-33z m-3116 -147 c-64 -90 -200 -419 -200 -484 0 -18 -5 -46 -10 -62 -11 -29
-19 -35 -352 -228 -108 -63 -124 -85 -87 -122 13 -13 107 -71 209 -130 102
-58 192 -113 201 -122 8 -10 21 -45 28 -80 33 -170 141 -417 265 -607 63 -96
78 -139 56 -161 -6 -6 -15 -38 -21 -73 -5 -34 -25 -112 -44 -174 -92 -297 -93
-311 -13 -288 50 15 366 163 421 198 l38 24 107 -69 c214 -139 442 -233 602
-248 41 -4 70 -12 78 -22 13 -17 18 -304 6 -336 -11 -28 -61 -18 -177 34 -62
28 -120 50 -129 50 -34 0 -46 -41 -57 -205 -12 -160 -26 -548 -38 -1042 -3
-144 -9 -267 -13 -273 -4 -7 -27 -14 -51 -17 -79 -8 -77 -17 -84 312 -3 160
-10 317 -16 350 -6 33 -14 110 -19 170 -5 61 -14 148 -20 195 -6 47 -13 132
-16 189 -5 117 -11 131 -79 162 -78 36 -37 68 -437 -351 -107 -113 -200 -215
-206 -227 -7 -12 -12 -39 -12 -61 0 -40 -42 -111 -66 -112 -6 0 -38 16 -69 35
-74 44 -111 51 -160 31 -64 -27 -83 -21 -170 49 -161 132 -172 135 -243 71
-64 -58 -224 -176 -237 -176 -7 0 -16 7 -19 16 -3 9 -6 206 -6 438 0 422 0
422 -22 453 -13 16 -128 145 -256 286 -176 195 -239 257 -256 257 -17 0 -44
-24 -96 -82 -39 -46 -179 -191 -311 -324 -131 -133 -239 -247 -240 -255 0 -8
-2 -90 -4 -184 -3 -165 -21 -457 -31 -502 -6 -32 -35 -45 -73 -32 -43 15 -51
35 -51 132 0 46 -5 98 -11 115 -6 17 -39 56 -74 86 l-63 56 -232 0 -232 0 -30
-32 c-17 -18 -87 -100 -156 -183 -164 -195 -179 -200 -155 -42 76 501 316
1066 670 1578 283 411 709 866 1093 1170 281 221 582 417 865 561 174 89 684
317 708 318 17 0 17 -2 -3 -30z m3654 -106 c1020 -407 1935 -1167 2518 -2094
261 -416 466 -893 558 -1302 40 -176 39 -208 -5 -208 -18 0 -59 42 -174 179
-82 98 -157 181 -166 185 -9 3 -115 6 -235 6 l-218 0 -32 -27 c-18 -14 -79
-98 -136 -185 -57 -87 -111 -158 -119 -158 -28 0 -35 74 -35 378 0 212 -4 310
-12 325 -6 12 -109 123 -228 247 -120 124 -255 267 -300 318 -46 50 -88 92
-95 92 -7 0 -114 -111 -238 -247 -124 -137 -237 -259 -252 -273 -60 -56 -60
-49 -56 -465 3 -384 -3 -465 -33 -465 -18 0 -118 72 -204 146 -53 47 -80 64
-101 64 -29 0 -100 -47 -194 -128 -62 -54 -87 -60 -132 -32 -45 28 -80 22
-155 -25 -30 -19 -62 -35 -71 -35 -28 0 -53 50 -54 106 l0 51 -295 301 c-162
166 -301 304 -308 307 -17 6 -77 -19 -117 -50 l-32 -24 -7 -123 c-3 -68 -13
-211 -22 -318 -21 -261 -30 -419 -39 -640 -5 -102 -12 -195 -16 -207 -10 -26
-69 -41 -103 -25 l-23 10 -11 394 c-21 698 -41 1080 -58 1106 -21 32 -45 28
-157 -24 -56 -27 -115 -47 -136 -48 l-36 -1 0 175 0 175 85 22 c212 56 383
129 571 244 53 32 99 59 103 59 4 0 60 -29 124 -65 149 -82 296 -143 353 -147
38 -3 44 0 47 18 2 12 -20 84 -48 160 -47 129 -110 353 -110 395 0 9 24 53 54
96 128 186 239 419 281 589 13 53 30 105 38 117 8 12 43 38 78 58 60 33 227
133 312 186 72 45 58 61 -188 203 -248 143 -231 130 -238 192 -7 67 -85 310
-132 406 -19 41 -35 76 -35 78 0 15 68 -6 234 -72z m-3515 -145 c55 -23 58
-28 37 -62 -7 -12 -26 -74 -41 -137 -14 -63 -31 -120 -37 -127 -6 -7 -32 -13
-58 -13 -63 0 -85 23 -77 82 8 53 64 225 83 256 18 27 28 27 93 1z m3215 -6
c3 -10 22 -80 42 -156 42 -154 41 -157 -28 -175 -64 -17 -77 -3 -109 128 -16
63 -34 125 -40 137 -15 27 -17 24 46 56 59 31 82 33 89 10z m-3350 -652 c233
-5 280 -8 287 -21 4 -8 14 -62 23 -118 42 -275 172 -522 393 -745 120 -121
225 -204 303 -239 81 -37 346 -128 372 -128 27 0 33 -25 14 -65 -22 -45 -36
-45 -186 5 -155 52 -230 85 -230 103 0 27 -29 42 -60 30 -25 -10 -29 -8 -34
12 -7 26 -168 163 -203 171 -22 6 -38 -7 -129 -104 -111 -118 -197 -191 -290
-247 -82 -49 -90 -46 -55 23 16 32 33 76 36 98 10 50 15 57 80 93 68 38 245
207 245 232 0 11 -25 49 -56 86 -146 172 -233 358 -274 587 -11 60 -23 112
-26 115 -3 3 -81 9 -172 12 -150 5 -174 8 -238 33 -39 15 -87 41 -105 57 l-34
30 30 -7 c17 -3 156 -9 309 -13z m3704 7 c-8 -24 -110 -77 -179 -92 -41 -10
-116 -16 -191 -16 -170 0 -166 3 -199 -145 -57 -252 -145 -433 -284 -583 -30
-33 -55 -66 -55 -74 0 -18 130 -144 227 -221 60 -47 74 -65 84 -99 6 -24 22
-64 35 -90 28 -55 28 -58 11 -58 -30 0 -168 110 -303 241 -78 77 -145 139
-149 139 -15 0 -52 -26 -132 -91 -107 -88 -133 -102 -333 -187 -218 -93 -205
-90 -230 -50 -39 64 -28 73 151 123 321 90 668 404 818 738 44 99 78 212 91
307 6 47 14 100 16 118 l5 32 247 1 c136 0 267 4 292 8 68 13 82 12 78 -1z
m-3589 -265 c6 -21 13 -67 17 -103 l6 -66 -51 -27 c-28 -16 -59 -27 -68 -25
-16 3 -62 138 -63 184 0 27 26 50 70 62 66 19 78 16 89 -25z m3288 4 c13 -13
14 -23 4 -64 -16 -67 -52 -163 -61 -163 -16 0 -102 53 -107 66 -3 7 3 44 12
81 28 115 20 106 82 101 31 -3 61 -12 70 -21z m-3204 -283 c9 -53 78 -187 146
-280 l58 -82 -19 -30 c-21 -34 -48 -47 -77 -37 -33 10 -251 355 -251 396 0 10
24 32 57 53 64 40 77 37 86 -20z m3070 16 c26 -17 47 -36 47 -44 0 -34 -194
-337 -249 -390 l-29 -28 -39 35 c-29 27 -36 39 -28 50 6 8 36 50 67 93 56 78
140 234 153 287 9 34 19 34 78 -3z m-1523 -682 c20 -24 41 -51 49 -61 12 -15
13 -105 11 -535 -1 -284 -5 -688 -9 -897 -4 -209 -3 -392 2 -407 6 -17 34 -45
74 -74 52 -37 71 -58 92 -103 26 -57 28 -73 31 -334 0 -10 28 -48 63 -84 l62
-65 -3 -326 c-2 -180 -5 -334 -8 -343 -3 -9 -14 -19 -25 -22 -15 -4 -23 1 -30
20 -5 14 -12 149 -16 301 -6 283 -13 333 -50 374 -22 24 -49 23 -140 -9 -110
-37 -230 -37 -324 0 -77 32 -87 32 -115 9 -58 -47 -60 -58 -73 -444 -4 -143
-11 -232 -18 -239 -19 -19 -50 -1 -57 33 -3 17 -6 158 -6 315 0 316 0 317 69
396 68 79 74 98 67 196 -5 63 -3 102 9 144 25 97 48 131 115 172 34 20 67 47
75 58 11 19 12 162 6 927 -8 1000 -13 912 58 998 19 23 40 42 46 42 6 0 26
-19 45 -42z m-969 -28 c65 -51 70 -57 64 -85 -3 -16 -12 -37 -21 -45 -13 -13
-21 -11 -77 17 -85 45 -130 88 -117 113 11 21 61 60 73 57 4 -1 40 -27 78 -57z
m1962 22 c16 -17 25 -35 22 -44 -16 -40 -293 -190 -355 -192 -34 -1 -35 0 -38
42 -3 40 -1 43 40 68 24 14 90 54 148 88 58 35 117 64 131 65 16 1 35 -10 52
-27z m-1712 -160 c35 -16 91 -37 124 -46 95 -28 102 -32 107 -66 11 -74 -28
-75 -196 -8 -162 64 -172 74 -140 123 21 31 27 31 105 -3z m1243 -54 c16 -62
-15 -103 -89 -115 -31 -5 -36 -3 -45 21 -21 56 -14 72 43 94 68 27 83 27 91 0z
m-756 -500 l-3 -443 -22 -3 c-20 -3 -22 2 -27 70 -3 40 -8 225 -12 410 -7 370
-3 408 42 408 l24 0 -2 -442z m412 432 c13 -8 15 -66 15 -422 0 -227 -2 -423
-4 -436 -3 -17 -9 -22 -25 -20 l-21 3 -3 443 c-2 461 -3 458 38 432z m-3430
-190 c11 -11 22 -30 25 -42 3 -13 2 -430 -2 -928 -9 -953 -9 -950 -53 -950
-20 0 -20 11 -21 713 -1 391 -3 824 -5 961 -2 137 -1 253 2 257 9 15 33 10 54
-11z m6472 -717 c-2 -401 -6 -820 -10 -933 l-7 -205 -27 -3 c-28 -3 -28 -3
-28 55 0 167 -12 682 -16 711 -6 37 -27 51 -49 32 -12 -10 -15 -45 -15 -184 0
-191 -9 -224 -70 -281 -17 -16 -48 -52 -68 -79 -34 -47 -36 -54 -41 -150 -5
-88 -8 -101 -25 -104 -10 -2 -21 1 -25 6 -4 6 -5 278 -4 604 2 500 5 599 18
631 10 25 15 72 15 141 l0 104 36 31 c20 18 41 30 47 28 9 -3 11 -63 9 -223
-4 -237 0 -283 26 -262 13 11 14 49 10 277 l-5 265 45 48 c25 27 49 45 53 41
4 -4 4 -163 0 -353 -6 -280 -5 -348 6 -360 18 -20 33 -2 40 51 4 23 0 188 -7
366 -13 304 -12 326 4 361 19 39 74 112 84 112 4 0 6 -327 4 -727z m-6627 550
c5 -60 5 -470 1 -913 -6 -688 -9 -809 -22 -837 -17 -35 -42 -49 -58 -33 -8 8
-12 162 -14 483 -3 518 -4 522 -60 515 l-27 -3 -5 -477 -5 -477 -22 -23 c-48
-47 -48 -50 -51 727 -2 668 -4 724 -19 730 -13 4 -38 -16 -94 -74 -43 -45 -80
-81 -83 -81 -3 0 -6 18 -6 41 0 38 7 48 123 172 68 73 131 133 140 135 14 3
16 -21 14 -230 -1 -128 2 -239 7 -246 15 -25 87 60 105 126 5 15 5 131 1 257
-5 152 -5 237 2 250 13 25 49 65 59 65 4 0 10 -48 14 -107z m6764 77 l34 -29
-2 -318 c-2 -358 -7 -330 82 -436 37 -44 42 -56 49 -120 4 -40 7 -257 7 -483
1 -346 -1 -413 -13 -423 -12 -10 -19 -8 -34 7 -17 17 -19 44 -26 393 -7 414
-11 454 -41 454 -18 0 -21 -9 -26 -75 -4 -41 -7 -225 -8 -407 -1 -183 -4 -340
-7 -348 -9 -23 -43 -18 -53 8 -9 24 -22 1793 -13 1802 9 9 16 5 51 -25z
m-6471 -92 c44 -48 44 -53 37 -628 -4 -300 -9 -655 -10 -790 -1 -135 -3 -249
-4 -253 0 -5 -13 -7 -28 -5 -19 2 -29 10 -34 28 -9 31 -11 1632 -3 1654 8 21
17 20 42 -6z m6744 -218 c58 -63 110 -125 117 -137 13 -25 15 -93 3 -93 -4 0
-37 36 -73 79 -67 84 -86 98 -103 81 -5 -5 -12 -83 -16 -176 l-5 -166 -27 27
-28 28 0 232 c0 214 3 250 20 243 3 -2 53 -55 112 -118z m-6592 35 l23 -25 5
-697 5 -698 -28 -33 c-57 -68 -55 -100 -55 716 0 412 3 752 7 755 11 11 18 8
43 -18z m2339 -182 c25 -15 84 -38 130 -53 89 -27 114 -47 95 -77 -12 -19 -71
-22 -150 -8 -37 7 -43 5 -49 -14 -3 -11 0 -33 7 -48 11 -24 21 -29 68 -35 30
-3 79 -6 108 -7 60 -1 80 -23 46 -48 -15 -12 -35 -13 -89 -8 -130 13 -119 17
-127 -45 -5 -30 -13 -89 -19 -130 -7 -47 -13 -385 -18 -900 -3 -454 -10 -831
-14 -837 -12 -20 -64 -16 -72 5 -11 24 -25 406 -23 599 1 90 -1 166 -5 169
-11 12 -39 -19 -60 -65 -17 -40 -20 -74 -24 -360 -2 -174 -6 -326 -9 -338 -5
-26 -48 -33 -57 -9 -3 8 -7 160 -8 338 -1 250 1 330 11 349 7 13 50 62 95 109
53 55 85 96 88 115 3 17 9 321 13 678 3 356 9 647 12 647 3 0 26 -12 51 -27z
m1204 -110 c4 -76 10 -376 13 -668 5 -439 9 -536 21 -562 9 -18 41 -57 73 -86
98 -91 91 -59 90 -438 0 -226 -4 -337 -11 -346 -16 -18 -35 -16 -45 5 -5 9
-11 170 -14 357 -4 304 -7 344 -23 368 -9 15 -26 27 -37 27 -11 0 -20 -1 -20
-3 0 -1 9 -34 20 -72 21 -71 19 -116 -5 -145 -16 -20 -35 -232 -35 -387 0
-111 -2 -125 -21 -144 -11 -11 -30 -19 -42 -17 l-22 3 -2 740 c-1 453 -6 794
-13 880 -6 77 -14 177 -17 223 -3 45 -9 85 -14 88 -4 2 -42 -3 -84 -11 -85
-18 -130 -13 -145 15 -14 27 8 36 106 43 113 8 134 18 134 61 0 52 -21 63 -80
42 -66 -24 -94 -19 -98 17 -5 39 11 54 71 67 29 6 79 26 112 45 33 19 65 35
71 35 7 0 13 -48 17 -137z m-1823 -540 l0 -568 24 -50 c13 -27 49 -85 79 -128
l55 -78 -4 -385 c-2 -212 -6 -390 -9 -395 -12 -18 -35 -8 -50 21 -13 24 -15
84 -15 374 l0 346 -25 16 c-52 34 -52 32 -60 -325 -5 -240 -11 -331 -19 -331
-6 0 -22 7 -34 16 -51 35 -51 33 -54 598 -3 450 -6 528 -18 536 -8 6 -69 10
-135 10 -94 0 -126 -3 -143 -16 l-23 -16 2 -429 c1 -236 -1 -432 -3 -435 -10
-10 -34 8 -58 43 l-25 37 0 435 0 436 205 5 205 5 3 108 3 107 -48 1 c-26 0
-99 2 -162 2 -66 1 -115 6 -117 12 -1 6 27 36 64 68 37 31 99 85 138 120 39
34 81 70 93 79 16 14 21 29 21 68 0 38 -4 50 -15 50 -14 0 -165 -129 -210
-180 -11 -12 -32 -28 -47 -36 -27 -14 -28 -14 -28 10 0 25 139 184 245 279 28
24 70 70 95 101 25 31 50 56 57 56 10 0 13 -118 13 -567z m2579 371 c204 -201
233 -236 214 -255 -8 -8 -51 24 -149 110 -75 67 -144 121 -151 121 -19 0 -37
-44 -29 -74 4 -16 64 -75 174 -167 92 -78 167 -147 167 -153 0 -7 -57 -13
-165 -16 l-165 -5 -3 -87 c-4 -135 -15 -128 206 -128 103 0 193 -4 200 -8 10
-7 12 -101 10 -455 l-3 -447 -31 -31 c-18 -17 -37 -28 -43 -25 -8 5 -11 136
-11 445 0 326 -3 440 -12 449 -8 8 -56 12 -149 12 -111 0 -139 -3 -149 -15
-11 -13 -12 -88 -7 -362 3 -190 3 -429 0 -531 l-6 -185 -30 -33 c-24 -29 -50
-42 -59 -31 -1 1 -5 155 -8 342 -5 329 -6 340 -25 340 -10 0 -29 -14 -41 -32
-20 -30 -21 -47 -28 -350 -8 -381 -10 -405 -40 -401 -21 3 -21 5 -26 353 -6
402 -6 402 74 540 29 50 58 105 64 124 9 24 12 197 12 592 0 308 2 559 5 559
3 0 95 -88 204 -196z m-1565 -39 c-1 -30 -8 -44 -30 -61 -74 -59 -203 -181
-210 -199 -4 -11 -8 -182 -8 -380 -2 -366 -6 -405 -40 -405 -10 0 -14 78 -20
388 -5 245 -4 396 2 412 14 35 278 293 294 288 8 -3 13 -20 12 -43z m530 -89
l139 -133 -6 -393 c-7 -394 -10 -426 -43 -413 -12 4 -14 66 -14 387 l-1 381
-32 36 c-29 33 -112 109 -180 166 -40 34 -50 103 -15 103 7 0 76 -61 152 -134z
m-4716 35 c11 -7 14 -73 13 -346 -1 -186 -4 -342 -7 -347 -3 -4 -27 -8 -54 -8
-34 0 -50 -4 -54 -16 -3 -9 -3 -80 1 -159 7 -159 1 -184 -48 -223 l-29 -23
-12 26 c-9 20 -9 34 0 58 8 24 10 162 5 524 -5 393 -4 495 7 508 9 11 32 15
89 15 42 0 82 -4 89 -9z m-264 -287 c0 -153 -3 -423 -7 -599 -6 -288 -8 -322
-25 -344 -41 -55 -42 -49 -42 302 0 183 3 456 7 606 6 249 8 275 26 297 39 50
42 32 41 -262z m9136 -219 c4 -374 8 -506 18 -522 22 -39 16 -63 -16 -63 -16
0 -37 6 -47 14 -17 12 -18 27 -16 182 1 93 -1 177 -5 187 -6 16 -14 18 -60 12
l-53 -6 -5 33 c-8 50 -15 656 -8 663 3 3 47 4 97 3 l90 -3 5 -500z m148 493
c19 -19 17 -1278 -1 -1278 -13 0 -28 24 -42 65 -7 23 -25 1206 -19 1217 8 12
49 9 62 -4z m-8880 -10 c9 -9 12 -104 11 -372 -1 -199 -4 -372 -8 -386 -9 -33
-39 -39 -45 -8 -10 49 -16 418 -9 594 5 161 8 184 23 184 9 0 21 -5 28 -12z
m4036 -153 c9 -103 -2 -253 -19 -280 -13 -21 -113 -81 -121 -73 -2 3 -7 72
-10 154 l-7 149 64 68 c34 37 68 67 75 67 7 0 14 -31 18 -85z m463 8 l75 -66
-7 -136 c-4 -75 -11 -140 -16 -145 -11 -12 -66 12 -106 47 l-33 29 0 169 c0
93 3 169 6 169 4 0 40 -30 81 -67z m3964 55 c4 -70 -1 -873 -6 -888 -5 -15
-14 -20 -28 -18 -21 3 -22 8 -28 188 -11 326 -10 649 2 673 25 47 58 72 60 45z
m-491 -418 c-1 -206 -4 -396 -7 -422 -5 -42 -8 -48 -29 -48 l-24 0 0 393 c0
339 2 400 16 442 16 45 18 47 31 29 11 -15 14 -88 13 -394z m1049 364 c18 -22
19 -35 14 -110 l-6 -85 47 -45 c53 -50 79 -54 84 -11 3 22 8 28 25 25 47 -7
48 -17 42 -588 -3 -294 -8 -567 -11 -605 -5 -70 -17 -106 -29 -93 -24 24 -29
116 -31 581 l-3 499 -28 36 c-15 20 -53 62 -85 92 -31 30 -62 68 -67 83 -12
31 -15 229 -4 240 13 14 32 7 52 -19z m-9559 -97 c0 -110 -1 -115 -29 -153
-16 -21 -52 -61 -81 -89 -28 -27 -57 -59 -63 -70 -9 -14 -13 -170 -17 -547
l-5 -527 -22 -23 c-12 -12 -26 -18 -30 -14 -8 8 -20 564 -22 999 l-1 227 34
37 33 37 18 -27 c23 -35 34 -34 75 8 32 33 34 40 40 124 4 68 9 94 24 110 39
43 46 29 46 -92z m2452 7 c80 -54 98 -70 98 -87 0 -10 -64 -1 -136 19 -70 20
-87 12 -203 -96 -105 -99 -134 -110 -139 -54 -3 27 3 37 40 65 23 19 87 73
142 122 56 48 104 87 107 87 4 0 45 -25 91 -56z m4824 -54 c65 -56 129 -112
141 -125 23 -26 21 -62 -3 -72 -16 -6 -77 41 -171 129 -71 67 -83 69 -203 38
-98 -26 -110 -26 -85 -1 38 37 170 130 186 131 8 0 69 -45 135 -100z m1549
-717 c-4 -17 -13 -23 -34 -23 -16 0 -31 6 -34 14 -3 7 -7 161 -8 342 -3 357
-1 370 53 409 l23 15 3 -367 c1 -203 0 -378 -3 -390z m-8110 701 c6 -13 8
-138 5 -359 -5 -321 -6 -340 -24 -343 -10 -2 -22 0 -27 5 -6 6 -14 600 -10
711 1 21 44 10 56 -14z m203 -26 c9 -9 12 -92 11 -317 -1 -169 -4 -319 -8
-336 -5 -25 -11 -30 -35 -30 -24 0 -31 5 -38 30 -6 22 -12 524 -9 648 1 13 9
17 34 17 18 0 38 -5 45 -12z m1898 -50 c55 -38 56 -39 56 -328 1 -147 -2 -272
-6 -278 -5 -8 -55 -12 -159 -12 -238 0 -315 -12 -573 -84 -62 -17 -217 -25
-224 -11 -3 6 54 57 125 113 72 57 184 150 250 206 66 56 172 145 236 198 63
53 142 126 175 162 62 68 67 70 120 34z m3985 -22 c46 -52 254 -234 464 -406
238 -195 335 -282 328 -293 -11 -18 -163 0 -308 37 -195 49 -245 55 -449 59
-155 3 -179 5 -188 20 -15 27 -2 555 14 574 17 21 69 53 87 53 7 0 31 -20 52
-44z m-6847 -1004 c-11 -20 -24 -32 -33 -30 -14 3 -16 47 -19 378 -3 398 1
456 41 507 l22 28 3 -425 c3 -387 1 -428 -14 -458z m9616 822 l25 -49 0 -381
c0 -210 -3 -386 -7 -390 -12 -11 -46 25 -58 61 -11 34 -23 749 -13 793 8 33
24 23 53 -34z m-3304 -191 c4 -21 2 -56 -4 -80 -8 -29 -12 -156 -12 -374 l0
-331 -31 -29 c-17 -16 -35 -29 -40 -29 -5 0 -9 159 -9 371 0 316 -2 373 -15
385 -32 32 -18 57 54 101 48 29 49 28 57 -14z m-2922 -13 c42 -46 43 -53 16
-80 -19 -19 -20 -33 -20 -374 0 -195 -4 -357 -9 -360 -5 -3 -20 4 -35 15 l-26
20 0 332 c0 261 -3 342 -15 380 -8 26 -12 54 -10 62 3 8 7 22 10 30 9 29 51
17 89 -25z m-630 -349 c3 -5 -18 -28 -46 -52 -29 -24 -82 -71 -117 -106 -34
-35 -82 -77 -106 -93 -64 -44 -68 -80 -10 -94 49 -13 23 -23 -72 -29 -185 -13
-225 -10 -263 18 -19 14 -42 25 -52 25 -39 0 -13 34 125 162 191 177 193 178
384 178 83 0 154 -4 157 -9z m4443 -29 c97 -53 333 -286 311 -307 -2 -2 -19
-7 -38 -10 -19 -3 -39 -10 -44 -16 -6 -5 -88 -9 -185 -9 l-176 1 38 30 c20 17
37 37 37 44 0 6 -70 74 -155 150 -85 75 -152 141 -149 147 4 6 63 8 153 6 144
-3 147 -4 208 -36z m-5912 -11 c8 -26 -16 -80 -51 -113 -34 -32 -102 -58 -151
-58 -73 0 -162 61 -184 127 -21 65 24 73 78 13 20 -21 51 -44 70 -51 65 -21
136 9 168 72 18 35 60 40 70 10z m155 -11 l28 -30 167 0 166 0 -3 -52 -3 -53
-206 -3 c-207 -2 -207 -2 -212 20 -8 27 14 148 26 148 5 0 22 -13 37 -30z
m6780 -46 c0 -82 16 -118 73 -171 l47 -43 184 0 c102 0 219 5 261 11 102 14
115 4 104 -77 -4 -31 -12 -61 -17 -66 -5 -5 -78 -7 -162 -6 l-154 3 -8 31
c-15 59 -69 56 -84 -4 l-9 -37 -172 -3 c-165 -2 -173 -2 -183 18 -12 22 -5
101 12 133 5 9 17 17 27 17 29 0 45 25 31 50 -18 33 -48 39 -205 39 -96 0
-152 4 -161 12 -8 6 -14 26 -14 44 0 66 -3 65 167 65 157 0 181 5 216 41 31
33 47 14 47 -57z m184 32 c69 -74 159 -81 222 -17 16 16 42 33 58 37 29 7 29
6 22 -26 -8 -43 -48 -96 -89 -116 -17 -9 -59 -19 -93 -22 -55 -4 -68 -1 -108
22 -50 29 -96 96 -96 139 0 42 35 35 84 -17z m-7609 4 c3 -5 8 -41 10 -79 5
-88 23 -149 48 -162 12 -7 128 -9 322 -7 240 2 307 0 317 -10 17 -17 13 -123
-4 -134 -16 -9 -258 -10 -313 0 -34 6 -40 11 -43 34 -7 58 -53 59 -77 2 l-14
-35 -153 3 -153 3 -8 48 c-6 40 -4 54 13 81 22 37 27 85 8 88 -7 0 -75 1 -150
2 -93 1 -141 5 -149 13 -17 17 -24 115 -10 142 11 20 18 21 181 21 97 0 171
-4 175 -10z m8363 -2 c15 -15 16 -102 1 -129 -9 -19 -19 -20 -102 -18 -51 1
-125 -2 -165 -6 -63 -7 -75 -6 -93 11 -17 16 -19 25 -13 69 12 89 2 85 192 85
117 0 172 -4 180 -12z m-4123 -338 l0 -295 -23 -3 c-12 -2 -24 3 -27 10 -2 7
-8 123 -12 258 l-8 245 -28 3 c-17 2 -29 -2 -33 -11 -3 -9 -6 -122 -7 -253 -2
-212 -4 -238 -19 -248 -11 -7 -21 -7 -26 -1 -8 9 -21 276 -22 441 0 55 -2 62
-22 68 -43 11 -46 -6 -51 -258 -5 -243 -8 -262 -44 -249 -10 4 -13 53 -13 240
0 232 -5 273 -34 273 -31 0 -36 -29 -41 -266 -3 -131 -10 -243 -14 -247 -5 -5
-17 -7 -27 -5 -24 4 -32 91 -33 380 -1 156 2 208 12 211 6 3 116 5 242 4 l230
-2 0 -295z m1725 204 c25 -25 123 -114 219 -197 138 -120 170 -153 153 -155
-36 -5 -81 23 -247 158 -166 134 -195 166 -195 213 0 39 19 34 70 -19z m-3860
2 c0 -13 -9 -35 -20 -49 -24 -31 -175 -154 -290 -236 -70 -50 -92 -61 -125
-61 l-40 1 30 22 c17 12 118 95 225 184 107 90 201 163 208 163 6 0 12 -11 12
-24z m-2244 -178 c-3 -18 -13 -42 -22 -55 -15 -23 -16 -23 -197 -21 l-182 3
-3 38 c-6 66 -3 67 215 67 l196 0 -7 -32z m8689 -23 l0 -50 -179 0 -179 0 -10
28 c-6 20 -6 37 2 53 l11 24 177 -2 178 -3 0 -50z m-6187 -108 c29 -17 97 -67
150 -110 53 -43 175 -137 270 -209 94 -72 172 -134 172 -139 0 -5 -220 -10
-497 -10 -274 -1 -570 -2 -657 -3 -110 -1 -160 2 -163 10 -2 6 63 69 144 140
226 197 254 221 365 295 117 79 127 80 216 26z m3458 5 c125 -81 560 -450 546
-464 -11 -11 -1268 -11 -1288 0 -12 6 35 47 183 157 109 82 242 184 297 228
115 92 153 117 182 117 11 0 47 -17 80 -38z m2098 -81 c8 -13 53 -246 60 -311
8 -72 -5 -52 -43 65 -63 195 -71 227 -60 242 13 15 35 17 43 4z m823 -13 c17
-14 17 -83 -1 -97 -9 -8 -70 -11 -197 -9 l-184 3 -15 48 c-12 38 -19 47 -35
45 -14 -2 -22 -15 -29 -43 -5 -22 -14 -43 -20 -47 -6 -4 -48 -8 -93 -8 -76 0
-84 2 -98 24 -18 27 -33 77 -28 91 4 14 683 8 700 -7z m-9042 3 c3 -5 1 -12
-4 -15 -5 -3 -12 -22 -15 -41 -4 -19 -15 -39 -26 -45 -28 -15 -363 -13 -378 2
-7 7 -12 28 -12 48 0 20 5 41 12 48 15 15 414 17 423 3z m280 -28 c-13 -73
-31 -83 -146 -83 -64 0 -83 12 -94 60 -12 53 3 60 132 60 l115 0 -7 -37z m450
27 c4 -6 2 -16 -3 -23 -5 -7 -12 -23 -16 -37 -4 -14 -12 -41 -17 -60 -20 -68
-31 -177 -37 -360 -4 -102 -11 -191 -15 -197 -5 -7 -5 -18 -2 -24 7 -10 8 -63
5 -267 -2 -106 -3 -112 -23 -117 -12 -3 -105 -4 -207 -3 -179 3 -185 4 -182
23 4 23 112 365 213 669 38 115 69 215 69 222 0 22 61 168 73 176 18 12 135 9
142 -2z m362 -11 c15 -14 17 -72 3 -100 -8 -14 -21 -19 -55 -19 -40 0 -46 3
-60 31 -23 44 -16 91 15 100 30 9 78 3 97 -12z m431 9 c7 -7 12 -31 12 -55 l0
-43 -129 0 c-124 0 -131 1 -160 25 -32 27 -47 58 -36 75 9 15 298 13 313 -2z
m5878 0 c11 -12 -17 -78 -39 -92 -16 -10 -58 -14 -144 -15 -137 0 -153 6 -153
63 0 54 9 57 177 53 84 -2 155 -6 159 -9z m252 -11 c11 -55 -42 -127 -92 -127
-18 0 -37 5 -44 12 -15 15 -16 77 -2 113 9 25 13 26 72 23 52 -2 63 -6 66 -21z
m416 -22 c4 -22 12 -49 17 -60 4 -11 27 -84 49 -163 23 -79 49 -165 59 -190
38 -96 192 -614 187 -628 -7 -19 -388 -21 -403 -1 -11 14 -11 217 1 235 4 7 4
17 0 24 -4 6 -9 100 -10 207 -4 281 -14 475 -24 485 -6 6 -10 21 -10 36 0 14
-9 39 -19 57 -25 39 -19 42 74 40 l70 -2 9 -40z m-7194 -185 c11 -7 15 -36 18
-127 1 -65 4 -149 7 -188 2 -38 6 -117 9 -175 2 -58 8 -119 13 -135 6 -17 8
-76 5 -132 -5 -114 -4 -113 -93 -113 -79 0 -80 3 -81 185 -1 292 12 668 24
682 12 15 76 17 98 3z m6976 -2 c4 -6 7 -200 7 -430 0 -350 -2 -421 -14 -429
-18 -11 -130 -11 -147 0 -17 10 -12 165 13 476 10 121 17 253 16 294 -1 44 3
79 10 87 14 17 105 19 115 2z m-7603 -36 c-2 -64 13 -62 -404 -62 l-379 0 -12
25 c-8 19 -8 31 0 50 l12 25 392 -2 393 -3 -2 -33z m1492 28 c22 -8 26 -15 23
-42 l-3 -33 -374 0 -375 0 -8 30 c-4 17 -6 36 -3 43 6 15 699 18 740 2z m5890
-10 c4 -13 0 -31 -9 -45 l-16 -25 -380 0 c-399 0 -399 0 -391 45 7 45 3 45
407 45 377 0 383 0 389 -20z m1519 1 c10 -11 16 -31 14 -48 l-3 -28 -371 -3
c-414 -3 -407 -4 -420 66 l-6 32 384 0 c366 0 386 -1 402 -19z m-3990 -6 c19
-20 11 -42 -17 -48 -18 -4 -1666 -2 -1689 2 -12 2 -9 36 4 49 9 9 211 12 849
12 738 0 839 -2 853 -15z m-1247 -171 c8 -21 -27 -220 -42 -241 -20 -27 -58
-3 -107 68 -66 96 -123 151 -150 147 -20 -3 -23 -9 -23 -48 0 -25 3 -68 7 -97
6 -48 5 -51 -17 -57 -38 -10 -54 3 -70 56 -21 71 -37 167 -30 178 4 6 90 10
216 10 183 0 210 -2 216 -16z m658 -34 l0 -45 -245 -3 c-135 -1 -255 0 -267 3
-18 4 -23 12 -23 38 0 18 5 38 12 45 9 9 77 12 268 10 l255 -3 0 -45z m551 35
c8 -21 -35 -203 -53 -220 -16 -17 -41 -19 -62 -6 -11 7 -10 21 4 84 20 85 16
107 -19 107 -35 0 -69 -33 -134 -130 -50 -74 -61 -85 -86 -85 -16 0 -32 7 -36
15 -15 30 -51 223 -43 231 12 12 69 15 256 17 139 2 169 -1 173 -13z m-4060
-22 c15 -62 58 -74 72 -20 8 31 10 32 65 35 51 3 57 1 57 -17 0 -40 11 -51 50
-51 39 0 50 11 50 51 0 16 7 19 55 19 54 0 55 0 55 -30 0 -34 29 -55 63 -44
27 8 37 22 37 52 0 21 4 23 48 20 45 -3 47 -4 56 -41 8 -30 7 -40 -4 -47 -17
-10 -462 -12 -570 -2 l-75 7 -3 48 c-3 42 -1 47 17 47 14 0 23 -9 27 -27z
m6156 15 c9 -7 18 -26 20 -43 3 -28 5 -30 48 -30 44 0 45 1 50 35 5 33 7 35
45 35 38 0 40 -2 45 -35 4 -31 9 -35 40 -38 38 -4 60 16 60 55 0 20 5 23 39
23 30 0 41 -5 46 -19 9 -30 -5 -69 -27 -75 -37 -9 -622 -6 -637 3 -12 8 -13
18 -5 48 8 35 12 38 43 38 29 0 35 -4 45 -35 10 -32 14 -35 51 -35 38 0 40 2
45 35 4 26 11 36 30 41 38 11 45 10 62 -3z m-6912 -12 c0 -25 -22 -76 -33 -77
-7 0 -32 -3 -57 -5 -65 -5 -87 2 -94 32 -15 56 -3 64 95 64 68 0 89 -3 89 -14z
m8228 -2 c14 -24 2 -65 -22 -73 -11 -5 -52 -7 -91 -6 -57 3 -72 7 -87 25 -23
28 -23 57 0 63 9 3 56 5 104 6 70 1 89 -2 96 -15z m319 4 c6 -7 13 -26 17 -41
6 -26 10 -28 49 -25 40 3 42 5 47 38 4 29 9 35 30 35 21 0 26 -5 28 -33 6 -57
-5 -61 -141 -59 l-122 2 -3 33 c-2 18 2 40 9 48 14 17 73 19 86 2z m-5612 -67
l60 -6 3 -55 c4 -87 9 -85 -205 -88 -115 -2 -199 1 -215 7 -25 9 -28 16 -28
56 0 33 -4 45 -15 45 -11 0 -15 -11 -15 -35 0 -20 -7 -52 -16 -73 -9 -22 -13
-50 -9 -69 5 -27 11 -33 38 -38 18 -3 251 -4 519 -3 538 4 507 8 489 -61 -6
-20 -15 -76 -21 -126 -16 -132 -18 -137 -49 -133 -23 3 -27 8 -33 57 -7 57
-21 74 -53 65 -29 -9 -45 -33 -45 -68 0 -52 -6 -55 -115 -48 -95 7 -100 8
-103 30 -5 34 23 59 74 67 29 4 47 13 51 23 4 9 17 30 30 45 31 38 30 65 -4
78 -38 14 -278 8 -294 -8 -8 -8 -14 -55 -17 -120 -4 -115 -14 -141 -38 -109
-10 14 -14 49 -14 123 0 102 0 104 -26 113 -28 11 -223 14 -248 4 -12 -4 -16
-20 -16 -55 0 -54 15 -69 69 -69 39 0 71 -31 71 -67 0 -49 -10 -54 -96 -51
l-78 3 -9 37 c-5 20 -14 38 -20 41 -23 8 -57 -12 -57 -33 0 -33 -19 -60 -41
-60 -26 0 -27 4 -36 145 -8 116 -9 119 -33 126 -43 12 -155 10 -168 -3 -8 -8
-12 -51 -12 -128 0 -63 -4 -120 -8 -126 -4 -6 -44 -14 -89 -17 l-83 -6 -22 29
c-28 38 -64 40 -80 5 -9 -20 -18 -25 -48 -25 -29 0 -41 6 -58 30 -28 38 -43
38 -64 -1 -14 -24 -23 -30 -45 -27 -26 3 -28 7 -34 63 -9 82 -11 510 -2 518 8
9 1175 7 1258 -2z m3358 3 c12 -4 14 -45 10 -272 -2 -147 -6 -277 -9 -289 -6
-33 -51 -31 -64 2 -6 15 -17 25 -30 25 -12 0 -25 -10 -32 -25 -10 -21 -18 -25
-58 -25 -40 0 -48 4 -58 25 -16 35 -59 34 -72 0 -10 -25 -11 -26 -102 -23
l-93 3 -3 124 c-1 71 -7 130 -14 138 -7 9 -38 13 -96 13 -121 0 -122 -2 -122
-152 0 -101 -2 -120 -16 -125 -27 -10 -48 11 -59 58 -10 40 -16 45 -44 41 -5
-1 -18 -25 -30 -52 l-22 -51 -66 3 c-73 3 -91 17 -79 61 9 37 33 57 67 57 22
0 34 8 49 33 32 51 36 78 14 94 -25 19 -256 15 -276 -5 -9 -9 -14 -50 -16
-123 -3 -86 -7 -112 -19 -116 -27 -10 -35 14 -41 128 l-7 114 -70 7 c-79 8
-236 0 -257 -13 -10 -7 -8 -17 11 -54 25 -47 65 -78 116 -91 43 -10 55 -22 55
-57 l0 -30 -82 5 c-48 3 -90 1 -99 -5 -26 -16 -47 -1 -54 40 -11 66 -15 73
-40 73 -44 0 -55 -10 -55 -50 0 -53 -8 -70 -34 -70 -21 0 -23 7 -39 138 -10
75 -17 149 -17 164 l0 26 516 0 c283 0 518 3 521 6 11 11 7 95 -5 109 -7 8
-10 27 -7 43 7 36 -7 59 -30 50 -13 -5 -16 -16 -13 -49 l3 -42 -204 -3 c-142
-2 -208 1 -217 9 -18 15 -19 103 -1 117 7 6 30 12 52 15 63 6 1222 8 1238 1z
m-2035 -100 c49 -6 57 -29 16 -44 -16 -6 -134 -9 -296 -7 -220 2 -271 5 -278
17 -13 20 6 38 43 42 49 5 467 -2 515 -8z m-3020 -46 l3 -47 -43 -5 c-24 -3
-140 -4 -258 -3 l-215 2 -9 36 c-18 72 -26 70 261 67 l258 -3 3 -47z m6047 -3
l0 -50 -250 0 c-137 -1 -258 1 -267 3 -13 2 -18 13 -18 37 0 66 -15 62 273 61
l262 -1 0 -50z m-7347 9 c2 -21 -4 -36 -19 -50 -20 -18 -44 -19 -590 -24 -313
-3 -574 -3 -579 -2 -23 8 3 94 32 105 7 3 269 5 583 4 l570 -2 3 -31z m9291
19 c12 -10 24 -34 27 -54 6 -34 4 -37 -22 -42 -34 -7 -1054 2 -1102 9 -27 4
-37 12 -48 40 -28 67 -54 64 566 64 516 0 559 -1 579 -17z m-5436 -133 c5 -4
3 -36 -3 -71 -6 -35 -15 -88 -20 -118 -6 -30 -10 -68 -10 -86 0 -42 -16 -55
-68 -55 l-45 0 6 48 c33 288 31 276 59 289 23 11 66 7 81 -7z m494 12 c7 -4
19 -62 28 -137 20 -177 20 -202 -5 -210 -50 -16 -80 20 -80 96 0 22 -4 48 -9
57 -5 9 -12 56 -16 104 -7 79 -6 87 11 91 30 8 58 7 71 -1z m-2772 -62 c16
-13 17 -28 13 -138 -3 -76 -10 -128 -17 -135 -15 -15 -359 -23 -380 -8 -11 7
-15 39 -16 133 -1 68 0 129 3 136 8 23 37 27 210 27 134 0 172 -3 187 -15z
m5347 4 c4 -3 8 -67 8 -144 0 -116 -2 -139 -16 -144 -32 -12 -369 -7 -387 7
-15 11 -17 29 -15 147 l3 135 40 6 c45 7 354 1 367 -7z m-6994 -12 c10 -7 4
-36 -28 -136 -35 -107 -45 -129 -66 -137 -31 -11 -144 -12 -162 0 -9 5 -14 44
-15 137 l-2 129 60 6 c95 9 199 9 213 1z m952 -7 c9 -11 10 -44 4 -137 -9
-119 -10 -123 -33 -126 -35 -5 -45 12 -53 86 -3 37 -10 88 -13 114 -4 26 -5
54 -2 63 8 20 80 20 97 0z m6459 1 c12 -15 12 -17 -21 -198 -13 -68 -28 -86
-62 -70 -22 10 -23 17 -28 134 -4 76 -2 128 4 136 14 17 93 15 107 -2z m1102
4 c17 -10 19 -22 19 -118 0 -143 -7 -156 -85 -160 -89 -5 -102 1 -116 51 -6
23 -25 80 -41 126 -29 81 -30 85 -12 98 22 16 206 18 235 3z m-9080 -27 c2
-101 -3 -239 -9 -245 -12 -12 -329 -14 -341 -3 -11 12 -27 236 -18 259 6 14
32 16 187 16 l180 0 1 -27z m9755 2 c3 -14 5 -70 2 -125 -5 -140 1 -135 -199
-133 -89 1 -164 4 -167 8 -9 8 -16 241 -8 261 4 11 38 14 185 14 l181 0 6 -25z
m164 -113 c0 -121 -6 -142 -41 -142 -25 0 -28 20 -26 148 3 120 11 141 49 121
16 -9 18 -24 18 -127z m-10390 100 c3 -12 4 -71 2 -131 -3 -88 -6 -110 -19
-115 -35 -14 -43 12 -43 139 0 67 3 125 7 129 14 14 47 0 53 -22z m3845 -466
c142 -38 268 -140 329 -269 62 -130 63 -141 58 -537 -1 -118 -6 -222 -12 -230
-6 -10 -35 -15 -108 -18 -134 -6 -131 -8 -134 161 -3 140 -4 205 -7 250 l-1
27 -249 0 c-165 0 -252 -4 -256 -11 -4 -5 -9 -101 -12 -212 -4 -131 -10 -205
-17 -209 -14 -10 -188 -10 -202 0 -21 14 -23 46 -25 335 -1 291 -1 294 25 368
45 129 145 251 250 306 91 48 261 66 361 39z m-2507 -373 c2 -306 4 -363 16
-363 21 0 102 139 184 315 81 174 93 210 101 325 l6 85 120 0 120 0 32 -95
c89 -261 173 -438 271 -575 64 -89 118 -125 200 -133 113 -10 214 84 304 284
48 105 123 329 143 423 8 41 20 80 26 88 15 18 218 18 242 0 16 -11 14 -25
-34 -191 -28 -98 -71 -231 -96 -295 -120 -309 -209 -436 -360 -510 -79 -39
-126 -51 -203 -51 -226 0 -386 128 -544 435 -48 94 -62 115 -74 115 -4 0 -23
-31 -41 -69 -106 -222 -285 -396 -532 -516 -51 -25 -98 -45 -104 -45 -8 0 -14
30 -18 83 -9 111 -9 1042 0 1051 4 3 59 5 122 4 l116 -3 3 -362z m3868 356
c11 -18 4 -182 -8 -196 -7 -9 -47 -13 -139 -13 -77 0 -130 -4 -134 -10 -4 -6
-9 -167 -12 -358 -3 -191 -8 -372 -12 -402 l-6 -55 -104 -3 c-77 -2 -107 1
-113 10 -4 7 -8 148 -9 313 -1 165 -4 345 -8 400 l-6 100 -178 3 -178 2 -9 26
c-11 29 -14 177 -3 187 12 13 911 8 919 -4z m395 -304 c4 -217 10 -321 19
-347 30 -86 112 -148 195 -148 62 0 105 20 144 66 57 69 63 113 63 435 0 221
3 291 13 299 8 7 59 10 131 8 l119 -3 0 -350 c0 -342 -1 -351 -23 -407 -51
-126 -148 -225 -265 -270 -53 -20 -80 -23 -187 -23 -121 0 -128 1 -190 32
-128 63 -219 167 -259 297 -18 59 -20 97 -23 386 -3 276 -1 322 12 330 8 6 67
9 130 8 l115 -3 6 -310z m1183 309 c14 -5 16 -30 16 -175 0 -212 -2 -211 116
-69 39 47 105 121 146 165 l75 80 157 3 c105 2 156 0 156 -7 0 -11 -49 -69
-247 -290 -57 -63 -103 -118 -103 -123 0 -4 33 -52 73 -107 39 -55 134 -191
211 -301 107 -157 135 -204 125 -211 -8 -5 -77 -8 -154 -6 l-140 2 -102 150
c-56 83 -135 200 -175 262 -41 64 -79 111 -87 110 -8 -1 -22 -13 -33 -27 -17
-23 -19 -48 -21 -253 -2 -190 -4 -229 -17 -237 -20 -13 -200 -13 -220 0 -16
10 -16 -8 -22 663 -3 309 -1 359 12 367 16 11 209 14 234 4z m1086 -20 c7 -17
8 -112 4 -258 -10 -322 7 -402 97 -479 56 -48 122 -64 175 -42 49 20 90 58
117 110 21 38 22 54 25 345 1 168 4 315 7 328 5 21 9 22 123 22 78 0 122 -4
130 -12 15 -15 17 -573 1 -668 -30 -194 -187 -348 -384 -381 -137 -23 -295 30
-401 136 -70 70 -117 154 -133 240 -12 63 -16 667 -4 678 3 4 57 7 120 7 113
0 114 0 123 -26z m1095 20 c11 -3 73 -78 138 -165 79 -107 125 -159 137 -159
12 0 60 53 139 153 66 84 132 159 146 165 32 15 301 17 310 2 3 -6 -4 -23 -17
-39 -190 -233 -309 -373 -384 -451 l-92 -95 -7 -262 c-6 -225 -10 -263 -22
-263 -26 0 -174 83 -194 109 -17 21 -19 43 -19 225 l-1 201 -80 90 c-111 124
-202 241 -266 343 -60 96 -76 129 -67 143 6 10 247 12 279 3z m-8733 -361 c8
-10 59 -96 112 -192 474 -850 1061 -1501 1781 -1978 723 -479 1524 -746 2565
-855 167 -17 789 -17 975 0 560 53 900 122 1325 267 572 197 984 408 1407 723
229 172 352 279 588 516 405 406 737 847 1025 1361 40 72 82 140 93 153 25 26
84 31 94 6 15 -40 -193 -426 -371 -689 -249 -368 -451 -612 -770 -931 -208
-207 -372 -351 -561 -494 -681 -512 -1615 -886 -2512 -1005 -319 -43 -821 -57
-1183 -35 -1207 76 -2314 491 -3150 1183 -161 134 -256 221 -435 401 -414 415
-733 847 -970 1311 -96 187 -114 237 -95 260 17 20 63 19 82 -2z"/>
<path d="M6311 11169 c-107 -13 -212 -44 -319 -94 -335 -159 -533 -425 -573
-768 -33 -285 72 -583 274 -780 211 -205 516 -306 837 -276 288 27 597 208
760 443 44 64 107 200 125 271 35 132 28 348 -15 502 -89 313 -368 574 -720
671 -61 17 -264 46 -289 41 -3 -1 -39 -5 -80 -10z"/>
<path d="M3669 9523 c-6 -15 -26 -81 -45 -146 -18 -65 -38 -126 -43 -136 -6
-10 -45 -31 -88 -46 -115 -41 -183 -73 -183 -84 0 -5 30 -19 68 -32 102 -33
189 -75 200 -95 5 -11 19 -55 31 -99 30 -112 71 -215 84 -215 7 0 31 62 55
138 24 75 49 148 55 162 9 18 45 39 136 80 68 30 123 60 123 65 1 6 -46 28
-103 51 -154 60 -154 59 -190 178 -62 206 -78 235 -100 179z"/>
<path d="M9151 9552 c-5 -9 -16 -42 -24 -72 -41 -153 -69 -237 -85 -252 -9 -9
-69 -36 -132 -60 -73 -28 -115 -49 -115 -58 0 -9 32 -26 85 -45 171 -62 157
-47 218 -232 30 -90 57 -163 61 -163 8 0 60 135 101 263 15 48 29 71 44 77 11
5 69 28 129 51 59 23 110 45 113 50 6 10 4 10 -149 69 -54 21 -105 44 -112 51
-7 8 -36 87 -64 177 -29 89 -54 162 -56 162 -2 0 -9 -8 -14 -18z"/>
<path d="M6423 8848 c-6 -7 -14 -24 -17 -38 -9 -42 -16 -1864 -7 -1878 5 -8
21 -12 37 -10 l29 3 3 910 c1 501 0 929 -3 951 -8 53 -26 81 -42 62z"/>
<path d="M6383 6849 c-106 -20 -168 -91 -180 -205 -14 -134 85 -234 232 -234
71 0 133 28 178 81 42 48 51 84 45 169 -9 132 -133 217 -275 189z"/>
<path d="M1956 7162 c-3 -5 -7 -59 -8 -120 -3 -94 0 -114 14 -128 14 -15 22
-16 43 -6 25 11 25 14 25 121 0 60 -3 116 -6 125 -6 17 -59 23 -68 8z"/>
<path d="M10825 7124 c-13 -13 -15 -34 -13 -106 3 -83 5 -91 25 -99 40 -15 53
12 53 111 0 78 -2 91 -19 100 -25 13 -27 13 -46 -6z"/>
<path d="M4385 6997 c-23 -18 -107 -88 -188 -157 -82 -69 -185 -156 -230 -193
-45 -38 -82 -74 -82 -80 0 -9 38 -11 145 -9 314 6 398 10 409 16 17 11 16 456
-1 455 -7 0 -31 -14 -53 -32z"/>
<path d="M8400 6805 l0 -225 23 -4 c39 -9 501 -26 525 -20 12 4 22 10 22 14 0
10 -457 399 -520 443 -50 35 -50 34 -50 -208z"/>
<path d="M4059 6303 c-14 -10 -73 -60 -132 -112 -131 -115 -141 -152 -44 -151
44 1 58 10 196 129 146 125 149 134 55 146 -38 5 -55 2 -75 -12z"/>
<path d="M8680 6299 c-24 -10 -23 -12 75 -105 142 -135 156 -142 233 -118 24
7 -18 63 -110 144 -99 88 -138 103 -198 79z"/>
<path d="M4598 5782 l-73 -70 41 -38 c95 -92 208 -190 233 -201 30 -14 328
-18 349 -5 16 11 1 24 -153 137 -66 48 -154 116 -195 150 -41 34 -87 70 -102
79 l-27 17 -73 -69z"/>
<path d="M4357 5568 c-47 -40 -88 -79 -91 -85 -4 -10 34 -13 174 -13 121 0
180 4 180 11 0 30 -134 159 -165 159 -7 0 -51 -33 -98 -72z"/>
<path d="M8170 5832 c-18 -6 -52 -32 -100 -76 -46 -42 -242 -194 -302 -235
-83 -56 -67 -63 136 -56 117 4 155 8 175 22 57 37 241 207 241 222 0 18 -95
115 -120 123 -8 3 -22 3 -30 0z"/>
<path d="M8315 5568 c-41 -39 -75 -76 -75 -83 0 -8 34 -14 106 -18 107 -7 244
0 244 12 0 16 -170 161 -189 161 -6 0 -45 -32 -86 -72z"/>
<path d="M2716 5722 c-3 -4 -41 -132 -85 -283 -43 -150 -105 -362 -136 -469
-32 -107 -60 -203 -62 -212 -5 -17 6 -18 141 -18 l147 0 -8 38 c-25 118 6 510
71 875 l13 77 -38 0 c-21 0 -40 -4 -43 -8z"/>
<path d="M10084 5718 c50 -245 89 -614 85 -804 l-4 -154 144 0 143 0 -7 28
c-7 27 -257 868 -276 930 -10 29 -14 32 -51 32 -40 0 -40 0 -34 -32z"/>
<path d="M4189 5209 c-17 -17 -19 -35 -19 -199 0 -171 1 -180 21 -190 11 -6
30 -10 42 -8 22 3 22 6 25 183 1 99 0 190 -3 201 -7 30 -42 37 -66 13z"/>
<path d="M4358 5213 c-10 -2 -18 -10 -19 -16 -14 -146 -19 -304 -11 -332 l8
-30 110 0 109 0 1 93 c2 110 6 122 38 122 41 0 56 25 56 90 0 48 -4 61 -19 70
-19 10 -238 12 -273 3z"/>
<path d="M4732 5208 c-17 -17 -16 -142 2 -157 9 -7 38 -11 73 -9 l58 3 3 73
c2 46 -2 79 -9 88 -14 17 -110 19 -127 2z"/>
<path d="M7998 5209 c-24 -14 -26 -140 -3 -159 16 -13 81 -8 96 7 4 4 10 35
14 69 5 50 4 64 -10 77 -18 19 -71 22 -97 6z"/>
<path d="M8203 5213 c-9 -3 -13 -29 -13 -78 l0 -73 40 -7 c22 -4 43 -12 47
-18 3 -6 7 -48 7 -95 1 -105 8 -112 117 -112 l77 0 12 35 c8 24 10 79 5 173
-9 203 8 182 -148 181 -72 0 -138 -3 -144 -6z"/>
<path d="M8582 5208 c-14 -14 -17 -344 -3 -366 5 -8 21 -12 37 -10 l29 3 0
190 0 190 -25 3 c-14 2 -31 -3 -38 -10z"/>
<path d="M4925 4241 c-71 -18 -132 -67 -165 -131 -11 -22 -20 -43 -20 -48 0
-9 460 -5 469 4 8 7 -24 69 -53 102 -53 61 -155 93 -231 73z"/>
</g>
</svg>
